<svg viewBox="0 0 820 402" xmlns="http://www.w3.org/2000/svg" font-family="Calibri, Arial, sans-serif">
  <defs>
    <pattern id="grid" width="18" height="18" patternUnits="userSpaceOnUse">
      <circle cx="1" cy="1" r="0.6" fill="#2a2a2a"/>
    </pattern>
    <marker id="arrow" markerWidth="10" markerHeight="10" refX="8" refY="4" orient="auto">
      <path d="M0,0 L8,4 L0,8" fill="none" stroke="#ffffff" stroke-width="1.3"/>
    </marker>
  </defs>
  <rect x="0" y="0" width="820" height="402" fill="#0b0b0b"/>
  <rect x="0" y="0" width="820" height="402" fill="url(#grid)"/>

  <!-- system boundary -->
  <rect x="260" y="40" width="500" height="312" fill="none" stroke="#ffffff" stroke-width="1.5"/>
  <line x1="260" y1="74" x2="760" y2="74" stroke="#ffffff" stroke-width="1"/>
  <text x="510" y="61" fill="#ffffff" font-size="13" text-anchor="middle"><tspan x="510" dy="0">Gestionar usuarios administrativos</tspan></text>
  <text x="748" y="92" fill="#bfbfbf" font-size="11" text-anchor="end" font-style="italic">sistema</text>

  <line x1="94" y1="213" x2="285" y2="213" stroke="#ffffff" stroke-width="1.3" marker-end="url(#arrow)"/>
  <line x1="475.376412046717" y1="186.22285258534785" x2="521.5641899843986" y2="171.73668586852955" stroke="#ffffff" stroke-width="1.3" marker-end="url(#arrow)"/>
  <line x1="483.5982885239011" y1="233.8468915348689" x2="503.43493169329014" y2="238.26505296805098" stroke="#ffffff" stroke-width="1.3" marker-end="url(#arrow)"/>
  
    <ellipse cx="390" cy="213" rx="105" ry="46" fill="#0b0b0b" stroke="#ffffff" stroke-width="1.5"/>
    <text x="390" y="217" fill="#ffffff" font-size="12.5" text-anchor="middle"><tspan x="390" dy="-14">Gestionar</tspan><tspan x="390" dy="15">usuarios</tspan><tspan x="390" dy="15">administrativos</tspan></text>
  
    <ellipse cx="610" cy="144" rx="145" ry="35" fill="#0b0b0b" stroke="#ffffff" stroke-width="1.5"/>
    <text x="610" y="148" fill="#ffffff" font-size="12.5" text-anchor="middle"><tspan x="610" dy="-7">Otorgar o revocar</tspan><tspan x="610" dy="15">roles</tspan></text>
  
    <ellipse cx="610" cy="262" rx="145" ry="35" fill="#0b0b0b" stroke="#ffffff" stroke-width="1.5"/>
    <text x="610" y="266" fill="#ffffff" font-size="12.5" text-anchor="middle"><tspan x="610" dy="-7">Activar o desactivar</tspan><tspan x="610" dy="15">cuentas</tspan></text>

  <!-- actor -->
  
    <circle cx="80" cy="185" r="10" fill="none" stroke="#ffffff" stroke-width="2"/>
    <line x1="80" y1="195" x2="80" y2="227" stroke="#ffffff" stroke-width="2"/>
    <line x1="66" y1="209" x2="94" y2="209" stroke="#ffffff" stroke-width="2"/>
    <line x1="80" y1="227" x2="68" y2="247" stroke="#ffffff" stroke-width="2"/>
    <line x1="80" y1="227" x2="92" y2="247" stroke="#ffffff" stroke-width="2"/>
  <text x="80" y="265" fill="#ffffff" font-size="12" text-anchor="middle">Super Admin</text>
</svg>